<?xml version="1.0" encoding="utf-8"?>
<!-- Generator: Adobe Illustrator 24.1.0, SVG Export Plug-In . SVG Version: 6.00 Build 0)  -->
<svg version="1.1" id="Layer_1" xmlns="http://www.w3.org/2000/svg" xmlns:xlink="http://www.w3.org/1999/xlink" x="0px" y="0px"
	 viewBox="0 0 800.6 179.9" style="enable-background:new 0 0 800.6 179.9;" xml:space="preserve">
<style type="text/css">
	.st0{fill:#C49A6C;}
	.st1{fill:url(#SVGID_1_);}
	.st2{fill:url(#SVGID_2_);}
	.st3{fill:url(#SVGID_3_);}
	.st4{fill:url(#SVGID_4_);}
	.st5{fill:#48494A;}
</style>
<path class="st0" d="M146.9,164.2c1.4-0.2,2.8-0.4,4.1-0.8s2.7-0.7,4-1.1c7.7-2.6,14.4-7.4,20.8-14.1l-0.1-0.1
	C167.2,157.1,158.2,162.7,146.9,164.2L146.9,164.2z"/>
<linearGradient id="SVGID_1_" gradientUnits="userSpaceOnUse" x1="220.25" y1="771.0645" x2="73.97" y2="776.6245" gradientTransform="matrix(1 0 0 1 0 -609.3938)">
	<stop  offset="0" style="stop-color:#ED1C24"/>
	<stop  offset="1" style="stop-color:#F7941D"/>
</linearGradient>
<path class="st1" d="M142.7,164.6h0.2c0.6,0,1.2-0.1,1.8-0.1c-0.6,0.1-1.2,0.1-1.9,0.1H142.7z"/>
<linearGradient id="SVGID_2_" gradientUnits="userSpaceOnUse" x1="217.64" y1="702.3121" x2="71.36" y2="707.8721" gradientTransform="matrix(1 0 0 1 0 -609.3938)">
	<stop  offset="0" style="stop-color:#ED1C24"/>
	<stop  offset="1" style="stop-color:#F7941D"/>
</linearGradient>
<path class="st2" d="M177.3,94.4l-0.1,0.1L177.3,94.4z"/>
<linearGradient id="SVGID_3_" gradientUnits="userSpaceOnUse" x1="119.637" y1="717.6852" x2="20.495" y2="721.4462" gradientTransform="matrix(1 0 0 1 0 -609.3938)">
	<stop  offset="0" style="stop-color:#ED1C24"/>
	<stop  offset="1" style="stop-color:#F7941D"/>
</linearGradient>
<path class="st3" d="M98,119.9c-2.3,3.2-4.7,6.2-7.4,9.1c-4.3,4.5-8.9,7.8-14.1,9.5c-0.9,0.3-1.8,0.6-2.7,0.8
	c-0.9,0.2-1.8,0.4-2.8,0.5c-0.3,0-0.6,0.1-1,0.1l-0.5,0c-0.4,0-0.8,0.1-1.2,0.1h-1.8c-1.8,0-3.5-0.2-5.3-0.6
	c-1.3-0.3-2.6-0.7-3.9-1.1c-0.9-0.3-1.7-0.7-2.6-1.1c-0.9-0.4-1.7-0.9-2.5-1.4c-3.8-2.3-7.1-5.3-9.8-8.8c-0.6-0.8-1.1-1.6-1.7-2.5
	c-0.3-0.4-0.5-0.9-0.7-1.3c-0.5-0.9-0.9-1.8-1.3-2.7c-2.8-6.7-2.8-14.2,0-20.8c0.4-0.9,0.8-1.8,1.3-2.7c0.2-0.4,0.5-0.9,0.7-1.3
	c0.5-0.8,1.1-1.7,1.7-2.5c2.7-3.5,6-6.5,9.8-8.8c0.8-0.5,1.7-0.9,2.5-1.4c0.8-0.4,1.7-0.7,2.6-1c1.3-0.5,2.6-0.9,4-1.2
	c1.7-0.4,3.5-0.6,5.3-0.6h1.8c0.4,0,0.8,0.1,1.2,0.1l0.6,0.1l0.6,0.1c1,0.1,2,0.3,3,0.5c0.5,0.1,1,0.2,1.4,0.4
	c2.4,0.7,4.7,1.7,6.8,3c0.9,0.5,1.7,1.1,2.5,1.7c1.7,1.2,3.3,2.6,4.8,4.1c0.8,0.8,1.6,1.6,2.3,2.4l0-0.1c2.3,2.5,4.4,5.2,6.3,8
	c3.1-4.9,7.8-12.3,9.5-14.7c0.7-1,1.4-2,2.1-3c-7.7-9.4-17.1-17.3-29.5-20.6H80c-0.6-0.2-1.2-0.3-1.8-0.5l-0.3-0.1
	c-0.6-0.1-1.2-0.3-1.8-0.4l-0.4-0.1c-0.7-0.1-1.4-0.2-2.1-0.3h-0.1c-0.4-0.1-0.8-0.1-1.2-0.1h-0.2l-1.1-0.1h-0.3l-1-0.1h-0.4l-1,0
	h-1.8C40,60.3,16.7,83.6,16.7,110.2s23.3,49.9,49.9,49.9h1.8l1,0h0.4l1-0.1h0.4l1-0.1h0.3l1-0.1l0.2,0l1.1-0.2H75
	c0.7-0.1,1.4-0.2,2-0.4l0.4-0.1c0.5-0.1,1.1-0.2,1.6-0.4l0.3-0.1c0.6-0.1,1.2-0.3,1.7-0.5l0.1,0c11.9-3.5,20.8-11.1,28.3-20.2
	c-0.8-1.2-1.6-2.4-2.3-3.7L98,119.9z"/>
<linearGradient id="SVGID_4_" gradientUnits="userSpaceOnUse" x1="224.458" y1="696.1075" x2="104.815" y2="700.8115" gradientTransform="matrix(1 0 0 1 0 -609.3938)">
	<stop  offset="0" style="stop-color:#ED1C24"/>
	<stop  offset="1" style="stop-color:#F7941D"/>
</linearGradient>
<path class="st4" d="M196.4,16.9v54.2c-8.5-6.8-19.1-10.6-30.1-10.7h-1.8l-1,0l-0.4,0l-1,0.1h-0.3l-1.1,0.1h-0.2
	c-0.4,0-0.8,0.1-1.2,0.1h-0.1c-0.7,0.1-1.4,0.2-2.1,0.3l-0.4,0.1c-0.6,0.1-1.2,0.2-1.8,0.4l-0.3,0.1c-17.4,3.9-28.8,16.5-38.2,30.2
	c-0.4,0.6-0.8,1.2-1.2,1.8c-1.7,2.5-3.3,5.1-4.9,7.7c-1.9,3-3.8,6-5.7,9l11.8,18.4c0,0,12.6,23.1,35.3,29.5l0.1,0
	c0.6,0.2,1.1,0.3,1.7,0.5l0.3,0.1c0.5,0.1,1.1,0.2,1.6,0.4l0.4,0.1c0.7,0.1,1.4,0.3,2,0.4h0.1l1.1,0.2l0.2,0l1,0.1h0.3l1,0.1h0.4
	l1,0.1h0.4l1,0h1.8c31.3,0,49.4-17.7,49.9-48.7V16.9H196.4z M166.3,140.1h-1.8c-0.4,0-0.8-0.1-1.2-0.1l-0.5,0c-0.3,0-0.6-0.1-1-0.1
	c-1.9-0.2-3.7-0.7-5.5-1.3c-1.3-0.4-2.6-1-3.8-1.6c-1.2-0.6-2.4-1.4-3.6-2.2c-0.6-0.4-1.2-0.8-1.7-1.3c-1.8-1.4-3.4-2.9-5-4.5
	l-0.1,0.1c-0.7-0.8-1.4-1.6-2.1-2.4c-0.1-0.1-0.2-0.2-0.3-0.3c-0.4-0.4-0.7-0.8-1.1-1.3s-0.6-0.8-1-1.2s-0.5-0.6-0.8-1
	c-1.2-1.5-2.4-3.1-3.5-4.7c-0.4-0.6-0.8-1.2-1.2-1.7c-0.2-0.3-0.4-0.7-0.7-1c-0.4-0.6-0.8-1.2-1.2-1.7l-0.2-0.3
	c-0.7-1-1.4-2.1-2.1-3.2c1.1-1.8,2.2-3.4,3.3-5.1c1.1-1.6,2.2-3.2,3.2-4.7c1.1-1.5,2.1-2.9,3.2-4.2s2.1-2.6,3.2-3.8
	c0.8-0.8,1.5-1.6,2.3-2.4c1.5-1.5,3.1-2.8,4.8-4.1c1.4-1,2.9-1.9,4.4-2.6c0.2-0.1,0.4-0.2,0.6-0.3l0.1-0.1c0.8-0.4,1.6-0.7,2.5-1
	l0.3-0.1c0.2,0,0.3-0.1,0.5-0.1c0.6-0.2,1.3-0.4,1.9-0.5l0.8-0.2c0.9-0.2,1.8-0.4,2.7-0.5l0.6-0.1l0.6-0.1c0.4,0,0.8-0.1,1.2-0.1
	h1.8c0.9,0,1.7,0.1,2.6,0.1c1.3,0.2,2.7,0.4,4,0.8c0.9,0.2,1.8,0.5,2.6,0.9c0.9,0.3,1.7,0.7,2.6,1.1c1.7,0.8,3.4,1.8,4.9,2.9
	c0.8,0.6,1.6,1.2,2.3,1.8c1.9,1.6,3.6,3.4,5.1,5.4c0.6,0.8,1.1,1.6,1.7,2.5c1.3,2.1,2.3,4.4,3,6.8c0.3,1,0.5,2,0.7,3
	c0.3,1.5,0.4,3.1,0.4,4.6C196.2,130.9,187,140.1,166.3,140.1L166.3,140.1z"/>
<g>
	<path class="st5" d="M452.5,145.4c-2.3-0.1-4.2,1.7-4.3,4s1.7,4.2,4,4.3c2.3,0.1,4.2-1.7,4.3-4c0-0.1,0-0.1,0-0.2
		C456.6,147.3,454.8,145.4,452.5,145.4L452.5,145.4z"/>
	<path class="st5" d="M242,104.8c2.2,0,4.3,0,6.6,0c4.8,9.1,8.4,18.8,12,29.1c3.7-10.1,7.1-19.8,12-29c2.2,0,4.3,0,6.6,0
		c1.7,3.3,2.7,6.9,3.2,10.5c0.6,4,1,8,1.1,12c0.3,7.9,0.3,15.7,0.4,23.6c0,0.9,0,1.8,0,2.8c-2.2,0.6-4.3,0.3-6.6,0.2
		c-0.1-0.9-0.1-1.6-0.1-2.4c0-6.8,0-13.6-0.2-20.4c-0.1-4.9-0.7-9.8-1.1-14.7c-0.1-0.9-0.4-1.9-0.7-3.2c-4.7,9.9-8.3,19.7-11.6,29.6
		c-2,0-3.9,0-6,0c-3.4-9.9-7-19.8-11.9-29.2c-0.3,2.7-0.9,5.5-1,8.2c-0.3,9.5-0.4,19-0.6,28.4c0,1.1,0,2.3,0,3.6c-2.3,0-4.4,0-6.6,0
		c-0.1-0.6-0.2-1.2-0.2-1.7c0.1-9.3,0.2-18.6,0.5-27.9c0.2-6.2,1.2-12.3,3.6-18.1C241.5,105.8,241.7,105.4,242,104.8z"/>
	<path class="st5" d="M670.2,134c3.6-10.3,7.2-19.9,12-29.1c2.2,0,4.3,0,6.6,0c1.6,3.1,2.5,6.6,3.2,10.1c1,5.3,1.2,10.7,1.4,16
		c0.2,7.2,0.1,14.5,0.1,21.7c0,0.3-0.1,0.7-0.1,1.2c-2.1,0-4.1,0-6.2,0c-0.7-0.8-0.4-1.8-0.4-2.8c-0.1-7,0-14-0.2-20.9
		c-0.2-4.8-0.7-9.6-1.1-14.4c-0.1-0.6-0.3-1.2-0.6-2.4c-1.5,2.6-2.4,5-3.3,7.3c-1.1,2.5-2.1,5-3,7.5c-0.9,2.4-1.8,4.8-2.7,7.3
		c-0.9,2.4-1.7,4.9-2.5,7.4c-2,0-3.8,0-6,0c-3.4-9.8-7-19.7-11.7-29.7c-0.9,3.6-1.3,6.8-1.4,9.9c-0.3,9.3-0.4,18.6-0.6,27.9
		c0,1,0,1.9,0,3c-2.3,0-4.3,0-6.5,0c-0.1-0.9-0.1-1.7-0.1-2.5c0-7.3,0-14.7,0.1-22c0.1-6.2,0.6-12.3,2.2-18.3
		c0.6-2.1,1.4-4.2,2.1-6.3c2.4,0,4.5,0,6.8,0C663,114,666.6,123.6,670.2,134z"/>
	<path class="st5" d="M603,152.5c0-15.6,0-30.9,0-46.5c2-0.3,3.9-0.7,5.8-1c4.5-0.5,9-1,13.4-0.1c9.2,1.9,14.7,7.9,17,16.7
		c1.7,6.5,1.3,12.9-1.3,19.2c-3.7,8.7-11.1,13.9-21.5,13.6c-3.9-0.1-7.8-0.9-11.7-1.4C604.3,152.9,603.8,152.7,603,152.5z
		 M609.8,146.5c2.6,1,5.1,1.2,7.6,1.2c6.6,0,11.2-3.1,13.7-9c2.6-6,2.7-12.2,0.2-18.3c-2-5-5.6-8.4-11-9.2c-2.9-0.4-5.9,0-8.9,0.1
		c-0.6,0-1.1,0.4-1.7,0.6C609.8,123.5,609.8,134.9,609.8,146.5z"/>
	<path class="st5" d="M549.6,129.3c-0.2,6.3-1.7,12.1-5.6,17.1c-4.7,6.1-11.1,8.5-18.7,7.9c-10.8-0.7-17.1-8.3-19.4-16.4
		c-1.8-6.6-1.7-13.1,0.8-19.5c6.3-16.6,25.5-16.9,34.3-9.3c4.2,3.7,6.7,8.3,7.8,13.7C549.2,125,549.3,127.2,549.6,129.3z
		 M542.2,129.4c-0.2-3.5-0.6-7.1-2.2-10.4c-2.6-5.4-7-8.3-13.1-8.3c-5.9,0.1-10.3,2.9-12.7,8.3c-0.9,2-1.6,4.2-1.9,6.4
		c-0.7,5.3-0.2,10.5,2.5,15.4c5.2,9.5,19.2,9.3,24.3,0.4C541.3,137.6,542,133.6,542.2,129.4z"/>
	<path class="st5" d="M371.3,129.3c-0.1,5.4-1.3,10.5-4.2,15.1c-4.8,7.5-11.8,10.7-20.6,9.9c-8.9-0.8-14.8-5.7-17.9-13.8
		c-3-7.7-2.9-15.6,0.4-23.2c3.7-8.6,12-13.3,21.4-12.8c9.8,0.6,17.7,7.3,20.1,18.2C370.9,124.9,371,127.1,371.3,129.3z M333.8,129.2
		c0,3.7,0.6,7.3,2.2,10.7c2.6,5.3,6.9,8.2,12.9,8.2c6.1,0,10.4-3,13-8.5c1.3-2.7,1.9-5.6,2-8.6c0.3-4.8-0.5-9.4-3.1-13.7
		c-5.3-8.9-19.4-8.7-24.4,0.8C334.6,121.6,333.8,125.3,333.8,129.2z"/>
	<path class="st5" d="M473.6,153.9c-2.3,0-4.4,0-6.4,0c0,0-0.1-0.1-0.2-0.2c-0.1-0.1-0.1-0.1-0.1-0.2c0-15.6-0.1-31.1-0.1-46.7
		c0-0.3,0.1-0.5,0.2-1c1.8-0.3,3.6-0.8,5.5-1c4.9-0.5,9.9-1,14.7,0.3c5.7,1.5,9.9,4.7,11.4,10.6c1.5,6.1,0.2,11.5-4.6,15.9
		c-0.7,0.6-1.3,1.2-2.1,1.9c2.8,6.7,5.6,13.3,8.5,20.2c-2.4,0.6-4.6,0.2-7,0.3c-2.5-5.8-5.1-11.7-7.6-17.7c-2.1,0.2-4,0.4-6,0.5
		c-2,0.1-3.9,0-6.2,0C473.6,142.6,473.6,148.2,473.6,153.9z M473.8,111.9c-0.5,2.7-0.4,15.8,0.1,18c3,0.2,6,0.4,9-0.1
		c1.7-0.3,3.5-1,5-1.9c3.6-2.2,4.9-5.6,4.1-9.7c-0.7-3.7-3.1-5.7-6.6-6.6C481.5,110.6,477.7,111.1,473.8,111.9z"/>
	<path class="st5" d="M595.3,154c-2.4,0-4.4,0-6.5,0c-1-4.4-2-8.7-3-13.1c-8,0-15.7,0-23.5,0c-1.5,4.2-2.2,8.6-3.1,13.1
		c-2.2,0-4.3,0-6.6,0c2.8-17.6,9.9-33.4,17.8-49c2.3,0,4.5,0,7,0C585.3,120.4,592.4,136.2,595.3,154z M573.8,111.8
		c-3.6,7.4-6.9,14.7-9.5,22.3c4.2,0.6,17.2,0.4,18.9-0.2C582.2,129.6,576.5,116.1,573.8,111.8z"/>
	<path class="st5" d="M743.7,153.9c-2.3,0-4.4,0-6.5,0c-1-4.5-2-8.8-3-13.1c-8,0-15.7,0-23.7,0c-1,4.4-2,8.7-3,13.1c-2,0-4,0-6.4,0
		c0.1-0.9,0.2-1.8,0.3-2.6c1.9-11,5.7-21.4,10.3-31.5c1.9-4.3,4.1-8.6,6.1-12.8c0.3-0.7,0.8-1.4,1.1-2.1c2.3,0,4.4,0,6.8,0
		C733.7,120.3,740.9,136.2,743.7,153.9z M722.4,111.6c-3.7,7.5-7,14.7-9.5,22.3c2.1,0.6,16.2,0.6,19.1,0.1
		C729.3,126.5,726,119.2,722.4,111.6z"/>
	<path class="st5" d="M384.7,153.6c0,4.9,0,9.5,0,14.3c-2.2,0.2-4.3,0.4-6.5,0.6c0-15.8,0-31.4,0-47.2c2.9-1.5,6.2-2.5,9.6-3.1
		c2.7-0.4,5.3-0.6,8.1-0.2c6.2,1,10.4,4.3,12.7,9.9c2.1,5.1,2.2,10.3,0.4,15.5c-3,8.6-10.5,11.9-18.8,11.1
		C388.6,154.3,386.9,153.9,384.7,153.6z M384.9,146.6c2.7,1.3,5.3,1.7,8,1.7c4.1,0,7.1-1.9,8.8-5.5c2.1-4.3,2.2-8.8,0.1-13.2
		c-1.3-2.9-3.5-4.8-6.6-5.4c-3.6-0.7-7.1-0.3-10.4,1.7C384.9,132.8,384.9,139.6,384.9,146.6z"/>
	<path class="st5" d="M751.5,105.9c1.9-0.4,3.8-0.8,5.6-1c4.9-0.5,9.9-1,14.8,0.3c6.2,1.6,10.4,5.2,11.6,11.7
		c1.2,6.5-0.8,11.8-6.2,15.8c-3.6,2.7-7.7,3.9-12.1,4.1c-2.2,0.1-4.5,0-7,0c-0.4,5.6,0,11.2-0.3,17c-2.1,0-4.1,0-6.1,0
		C751.2,151.9,751,115.6,751.5,105.9z M758.4,111.9c-0.5,2.4-0.5,15.9,0,18.1c2.8,0,5.7,0.1,8.6,0c2.2-0.1,4.2-1,6-2.3
		c3.3-2.3,4.4-5.6,3.7-9.4c-0.7-3.7-3.1-5.7-6.6-6.6C766.2,110.6,762.3,111.1,758.4,111.9z"/>
	<path class="st5" d="M325.2,147.8c-0.1,2.3-0.2,4.1-0.3,5.9c-2.2,0.5-28,0.6-31.5,0.2c0-16,0-32.1,0-48.5c2-0.2,4.1-0.4,6.4-0.6
		c0,14.5,0,28.6,0,43C308.3,147.8,316.6,147.8,325.2,147.8z"/>
	<path class="st5" d="M415.7,151.6c0.6-1.6,1.2-3.1,1.7-4.6c2.3,0.6,4.4,1.2,6.6,1.6c2,0.4,3.9,0.1,5.8-0.6c1.6-0.6,2.8-1.6,3-3.5
		c0.2-1.9-0.6-3.4-2.2-4.2c-2-1-4.1-1.8-6.1-2.7c-1.4-0.6-2.8-1.2-4.1-2c-3.5-2.3-4.5-5.7-3.9-9.6c0.6-3.6,2.7-6,6.1-7.2
		c4.9-1.7,9.7-1.1,14.6,0.9c-0.6,1.7-1.2,3.3-1.7,4.8c-2-0.4-3.9-0.9-5.7-1c-1.5-0.1-3.1,0.1-4.5,0.4c-1.7,0.4-2.7,1.7-2.9,3.5
		c-0.3,1.8,0.5,3.2,2,4c1.6,0.8,3.3,1.5,4.9,2.2c1.9,0.9,4,1.7,5.7,3c5.6,4.3,5.1,12.1-1,15.7c-3.9,2.3-8,2.3-12.3,1.5
		C419.5,153.5,417.5,153.1,415.7,151.6z"/>
</g>
</svg>
